<svg xmlns="http://www.w3.org/2000/svg" width="215" height="28.656" viewBox="0 0 215 28.656">
  <g id="그룹_16" data-name="그룹 16" transform="translate(85.071 -267.763)">
    <path id="패스_27" data-name="패스 27" d="M-63.319,273.455H-74.043c-2.517,0-4.424.808-4.424,2.655,0,4.694,16.781,1.154,16.781,11.886,0,5.925-5.412,8.31-11.369,8.31H-85.071v-5.695h12.594c2.554,0,4.493-.769,4.493-2.462,0-4.884-16.715-1.5-16.715-12.153a7.491,7.491,0,0,1,1.841-5.233l-1.566-3h10.143l10.962.037Z" transform="translate(0 0)" fill="#fff"/>
    <path id="패스_28" data-name="패스 28" d="M-76.4,267.81h15.455c5.209,0,7.829,4.385,7.829,8.769s-2.62,8.772-7.829,8.772H-68.09v10.877h-5.753V272.694Zm8.307,12.116h6.535c1.907,0,2.861-1.654,2.861-3.347,0-1.654-.954-3.347-2.861-3.347H-68.09Z" transform="translate(14.237 0.077)" fill="#fff"/>
    <path id="패스_29" data-name="패스 29" d="M-56.364,267.853h21.786v5.386H-45.846c-4.221,0-6.363,5.417-6.363,9.456,0,4,2.076,8.077,6.228,8.077h11.4v5.386H-46.015c-8.1-.116-12.153-6.77-12.153-13.463,0-3.656,1.226-8.724,3.642-11.3Z" transform="translate(44.158 0.148)" fill="#fff"/>
    <path id="패스_30" data-name="패스 30" d="M-24.56,290.849v5.423H-46.04V272.74l-2.554-4.887h23.8v5.386H-40.287v6.094H-27.08v5.423H-40.287v6.094Z" transform="translate(59.873 0.148)" fill="#fff"/>
    <path id="패스_31" data-name="패스 31" d="M-1.86,290.733v5.425H-23.409v-5.425L-9.28,273.278H-23.1l-2.552-5.425H-3.017v5.425l-13.788,17.454Z" transform="translate(97.526 0.148)" fill="#fff"/>
    <path id="패스_32" data-name="패스 32" d="M-51.832,267.853l11.89,28.3h-6.093l-8.34-19.618-8.339,19.618h-6.094l10.042-23.811-2.189-4.492Z" transform="translate(26.694 0.148)" fill="#fff"/>
    <g id="그룹_14" data-name="그룹 14" transform="translate(-31.737 286.532)">
      <path id="패스_33" data-name="패스 33" d="M-58.283,282.569l-2.516-1.3-2.5,1.335.46-2.8-2.042-1.964,2.8-.426,1.237-2.549,1.271,2.532,2.806.388-2.015,1.991Z" transform="translate(64.879 -274.869)" fill="#fff"/>
    </g>
    <path id="패스_34" data-name="패스 34" d="M-19.4,267.853l11.89,28.3H-13.6l-8.34-19.618-8.339,19.618h-6.094l10.042-23.811-2.189-4.492Z" transform="translate(79.927 0.148)" fill="#fff"/>
    <g id="그룹_15" data-name="그룹 15" transform="translate(53.927 286.532)">
      <path id="패스_35" data-name="패스 35" d="M-25.851,282.569l-2.516-1.3-2.5,1.335.46-2.8-2.042-1.964,2.8-.426,1.237-2.549,1.271,2.532,2.806.388-2.015,1.991Z" transform="translate(32.448 -274.869)" fill="#fff"/>
    </g>
    <path id="패스_36" data-name="패스 36" d="M-16.353,272.015h8.307v17.31H-13.8V276.939Z" transform="translate(112.792 6.98)" fill="#fff"/>
    <path id="패스_37" data-name="패스 37" d="M-9.72,275.8l-2.516-1.3-2.5,1.335.46-2.8-2.042-1.964,2.8-.426,1.237-2.549,1.271,2.532,2.806.389-2.015,1.991Z" transform="translate(112.852 0.547)" fill="#fff"/>
    <path id="패스_38" data-name="패스 38" d="M2.593,267.853H-12.943v5.41h8.928v22.893H2.613V273.264H11.54v-5.41Z" transform="translate(118.389 0.148)" fill="#fff"/>
  </g>
</svg>
