<svg xmlns="http://www.w3.org/2000/svg" width="166.154" height="22.146" viewBox="0 0 166.154 22.146">
  <g id="메인_로고" data-name="메인 로고" transform="translate(0 0)">
    <g id="그룹_11" data-name="그룹 11">
      <path id="패스_15" data-name="패스 15" d="M-835.573-496.632h-8.287c-1.947,0-3.42.625-3.42,2.052,0,3.627,12.97.891,12.97,9.186,0,4.578-4.183,6.421-8.786,6.421h-9.287v-4.4h9.733c1.973,0,3.473-.594,3.473-1.9,0-3.775-12.917-1.159-12.917-9.394a5.793,5.793,0,0,1,1.421-4.043l-1.211-2.318h7.84l8.471.029Z" transform="translate(852.383 501.031)" fill="#fff"/>
      <path id="패스_16" data-name="패스 16" d="M-826.4-500.891h11.943c4.026,0,6.051,3.39,6.051,6.778s-2.025,6.778-6.051,6.778h-5.524v8.406h-4.445v-18.187Zm6.418,9.364h5.051a2.327,2.327,0,0,0,2.21-2.586,2.344,2.344,0,0,0-2.21-2.587h-5.051Z" transform="translate(844.111 500.986)" fill="#fff"/>
      <path id="패스_17" data-name="패스 17" d="M-770.415-500.761h16.836v4.162h-8.708c-3.262,0-4.919,4.186-4.919,7.307,0,3.092,1.605,6.243,4.814,6.243h8.813v4.162h-8.839c-6.261-.089-9.392-5.233-9.392-10.405,0-2.824.947-6.742,2.814-8.733Z" transform="translate(826.728 500.945)" fill="#fff"/>
      <path id="패스_18" data-name="패스 18" d="M-724.564-482.991v4.192h-16.6v-18.187l-1.973-3.775h18.389v4.162h-11.97v4.708h10.207v4.192h-10.207v4.708Z" transform="translate(817.598 500.945)" fill="#fff"/>
      <path id="패스_19" data-name="패스 19" d="M-656.048-483.079v4.192H-672.7v-4.192l10.917-13.49h-10.681l-1.973-4.192h17.494v4.192l-10.655,13.49Z" transform="translate(795.723 500.945)" fill="#fff"/>
      <path id="패스_20" data-name="패스 20" d="M-790.557-500.761l9.189,21.873h-4.709l-6.445-15.161-6.445,15.161h-4.709l7.76-18.4-1.691-3.472Z" transform="translate(836.874 500.945)" fill="#fff"/>
      <g id="그룹_9" data-name="그룹 9" transform="translate(41.217 14.505)">
        <path id="패스_21" data-name="패스 21" d="M-786.813-473.8l-1.945-1.006-1.931,1.032.356-2.16-1.578-1.518,2.164-.329.956-1.97.982,1.957,2.169.3-1.557,1.539Z" transform="translate(791.911 479.75)" fill="#fff"/>
      </g>
      <path id="패스_22" data-name="패스 22" d="M-693.427-500.761l9.189,21.873h-4.709l-6.445-15.161-6.445,15.161h-4.709l7.76-18.4-1.691-3.472Z" transform="translate(805.947 500.945)" fill="#fff"/>
      <g id="그룹_10" data-name="그룹 10" transform="translate(107.419 14.505)">
        <path id="패스_23" data-name="패스 23" d="M-689.684-473.8l-1.945-1.006-1.931,1.032.356-2.16-1.578-1.518,2.164-.329.956-1.97.982,1.957,2.169.3-1.557,1.539Z" transform="translate(694.782 479.75)" fill="#fff"/>
      </g>
      <path id="패스_24" data-name="패스 24" d="M-646.581-488.3h6.419v13.378h-4.446v-9.572Z" transform="translate(786.854 496.976)" fill="#fff"/>
      <path id="패스_25" data-name="패스 25" d="M-641.374-494.082l-1.945-1.006-1.931,1.032.356-2.16-1.578-1.518,2.164-.329.956-1.97.982,1.957,2.169.3-1.557,1.539Z" transform="translate(786.819 500.713)" fill="#fff"/>
      <path id="패스_26" data-name="패스 26" d="M-624.362-500.761h-12.006v4.181h6.9v17.692h5.122V-496.58h6.9v-4.181Z" transform="translate(783.602 500.945)" fill="#fff"/>
    </g>
  </g>
</svg>
